<?xml version="1.0" encoding="UTF-8"?>
<!DOCTYPE svg PUBLIC "-//W3C//DTD SVG 1.1//EN" "http://www.w3.org/Graphics/SVG/1.1/DTD/svg11.dtd">
<!-- Creator: CorelDRAW X7 -->
<svg xmlns="http://www.w3.org/2000/svg" xml:space="preserve" width="12.1918mm" height="9.9906mm" version="1.1" style="shape-rendering:geometricPrecision; text-rendering:geometricPrecision; image-rendering:optimizeQuality; fill-rule:evenodd; clip-rule:evenodd"
viewBox="0 0 1219 999"
 xmlns:xlink="http://www.w3.org/1999/xlink">
 <defs>
  <style type="text/css">
   <![CDATA[
    .white {fill:#ffffff}
   ]]>
  </style>
 </defs>
 <g id="Layer_x0020_1">
  <metadata id="CorelCorpID_0Corel-Layer"/>
  <g id="_1036550208">
   <path class="white" d="M634 25l244 206 245 205 91 77 -119 0 -153 0 0 258c98,23 192,60 279,108 -191,-54 -401,-75 -618,-54 -218,21 -420,82 -597,172 81,-68 171,-125 270,-167 -2,1 -4,2 -6,2l0 -319 -153 0 -119 0 91 -77 245 -205 244 -206 28 -23 28 23zm308 746c-3,-1 -6,-2 -9,-2 3,0 6,1 9,2zm-10 -3c-3,0 -6,-1 -9,-2 3,1 6,2 9,2zm-10 -2c-3,0 -6,-1 -9,-2 3,1 6,2 9,2zm-10 -2c-3,0 -6,-1 -8,-1 2,0 5,1 8,1zm-11 -2c-2,0 -5,-1 -7,-1 2,0 5,1 7,1zm-9 -2c-3,0 -5,-1 -8,-1 3,0 5,1 8,1zm-11 -2c-2,0 -4,0 -7,-1 3,1 5,1 7,1zm-10 -1c-2,-1 -4,-1 -6,-1 2,0 4,0 6,1zm-10 -2c-2,0 -4,-1 -6,-1l0 -140 0 -101 0 -87 121 0 -154 -129 -216 -182 -217 182 -153 129 121 0 0 87 0 101 0 185 0 0c76,-26 155,-43 238,-51 90,-9 179,-6 266,7zm-549 60c-1,1 -3,1 -4,2 1,-1 3,-1 4,-2zm-9 4c-1,0 -3,1 -5,1 2,0 4,-1 5,-1zm-9 3c-2,1 -4,2 -6,3 2,-1 4,-2 6,-3zm-9 4c-2,1 -4,2 -6,2 2,0 4,-1 6,-2z"/>
   <path class="white" d="M532 445c0,-40 33,-73 74,-73 40,0 73,33 73,73 0,28 -14,52 -36,64l7 13 45 77 -89 0 -89 0 45 -77 7 -13c-22,-12 -37,-36 -37,-64z"/>
  </g>
 </g>
</svg>
