<?xml version="1.0" encoding="UTF-8"?>
<!DOCTYPE svg PUBLIC "-//W3C//DTD SVG 1.1//EN" "http://www.w3.org/Graphics/SVG/1.1/DTD/svg11.dtd">
<!-- Creator: CorelDRAW X7 -->
<svg xmlns="http://www.w3.org/2000/svg" xml:space="preserve" width="43.3492mm" height="35.306mm" version="1.1" style="shape-rendering:geometricPrecision; text-rendering:geometricPrecision; image-rendering:optimizeQuality; fill-rule:evenodd; clip-rule:evenodd"
viewBox="0 0 4335 3531"
 xmlns:xlink="http://www.w3.org/1999/xlink">
 <defs>
  <style type="text/css">
   <![CDATA[
    .fil1 {fill:url(#id0)}
    .fil0 {fill:url(#id1)}
   ]]>
  </style>
  <linearGradient id="id0" gradientUnits="userSpaceOnUse" x1="2412.92" y1="1885.88" x2="1895.45" y2="1545.24">
   <stop offset="0" style="stop-opacity:1; stop-color:#4D4B4A"/>
   <stop offset="1" style="stop-opacity:1; stop-color:#84807D"/>
  </linearGradient>
  <linearGradient id="id1" gradientUnits="userSpaceOnUse" xlink:href="#id0" x1="3654.36" y1="2744.1" x2="680.56" y2="786.49">
  </linearGradient>
 </defs>
 <g id="Layer_x0020_1">
  <metadata id="CorelCorpID_0Corel-Layer"/>
  <g id="_1095342688">
   <path class="fil0" d="M2253 83l866 729 867 730 323 272 -422 0 -542 0 0 913c348,82 681,212 990,384 -677,-194 -1421,-267 -2192,-192 -772,75 -1488,291 -2115,612 287,-243 608,-444 955,-594 -6,3 -13,5 -19,8l0 -1131 -543 0 -422 0 324 -272 866 -730 866 -729 99 -83 99 83zm1092 2644c-11,-3 -22,-5 -32,-8 10,3 21,5 32,8zm-36 -8c-10,-3 -21,-5 -32,-7 11,2 22,4 32,7zm-34 -8c-11,-2 -21,-4 -32,-7 11,3 21,5 32,7zm-36 -8c-10,-2 -20,-3 -30,-5 10,2 20,3 30,5zm-37 -7c-9,-2 -18,-3 -27,-5 9,2 18,3 27,5zm-35 -7c-9,-1 -18,-3 -27,-4 9,1 18,3 27,4zm-36 -6c-8,-1 -17,-3 -25,-4 8,1 17,3 25,4zm-37 -6c-7,-1 -15,-3 -22,-4 7,1 15,3 22,4zm-36 -6c-8,-1 -15,-2 -22,-3l0 -496 0 -358 0 -309 429 0 -543 -457 -768 -646 -767 646 -544 457 429 0 0 309 0 358 0 654 -1 0c269,-91 551,-153 845,-181 320,-31 636,-21 942,26zm-1945 213c-5,2 -10,4 -16,6 6,-2 11,-4 16,-6zm-32 12c-6,2 -11,5 -17,7 6,-2 11,-5 17,-7zm-32 13c-7,3 -14,6 -20,9 6,-3 13,-6 20,-9zm-32 13c-7,3 -14,6 -21,10 7,-4 14,-7 21,-10z"/>
   <path class="fil1" d="M1893 1574c0,-144 117,-261 261,-261 144,0 261,117 261,261 0,96 -52,181 -130,226l26 46 158 272 -315 0 -314 0 157 -272 27 -46c-78,-45 -131,-130 -131,-226z"/>
  </g>
 </g>
</svg>
