<?xml version="1.0" encoding="UTF-8"?>
<!DOCTYPE svg PUBLIC "-//W3C//DTD SVG 1.1//EN" "http://www.w3.org/Graphics/SVG/1.1/DTD/svg11.dtd">
<!-- Creator: CorelDRAW X7 -->
<svg xmlns="http://www.w3.org/2000/svg" xml:space="preserve" width="8.1278mm" height="6.6038mm" version="1.1" style="shape-rendering:geometricPrecision; text-rendering:geometricPrecision; image-rendering:optimizeQuality; fill-rule:evenodd; clip-rule:evenodd"
viewBox="0 0 813 660"
 xmlns:xlink="http://www.w3.org/1999/xlink">
 <defs>
  <style type="text/css">
   <![CDATA[
    .fil0 {fill:url(#id0)}
    .fil1 {fill:url(#id1)}
   ]]>
  </style>
  <linearGradient id="id0" gradientUnits="userSpaceOnUse" x1="684.52" y1="513.27" x2="128.27" y2="147.1">
   <stop offset="0" style="stop-opacity:1; stop-color:#4D4B4A"/>
   <stop offset="1" style="stop-opacity:1; stop-color:#84807D"/>
  </linearGradient>
  <linearGradient id="id1" gradientUnits="userSpaceOnUse" xlink:href="#id0" x1="452.31" y1="352.74" x2="355.51" y2="289.03">
  </linearGradient>
 </defs>
 <g id="Layer_x0020_1">
  <metadata id="CorelCorpID_0Corel-Layer"/>
  <g id="_1099353056">
   <path class="fil0" d="M422 16l162 136 163 136 60 51 -79 0 -101 0 0 171c65,15 127,40 185,72 -127,-36 -266,-50 -410,-36 -145,14 -278,54 -396,114 54,-45 114,-83 179,-111 -1,1 -3,1 -4,2l0 -212 -101 0 -79 0 60 -51 162 -136 162 -136 19 -16 18 16zm205 494c-2,0 -4,-1 -6,-1 2,0 4,1 6,1zm-7 -1c-2,-1 -4,-1 -6,-2 2,1 4,1 6,2zm-7 -2c-1,0 -3,-1 -5,-1 2,0 4,1 5,1zm-6 -1c-2,-1 -4,-1 -6,-1 2,0 4,0 6,1zm-7 -2c-2,0 -3,0 -5,-1 2,1 3,1 5,1zm-7 -1c-1,0 -3,-1 -5,-1 2,0 4,1 5,1zm-6 -1c-2,0 -3,-1 -5,-1 2,0 3,1 5,1zm-7 -1c-2,-1 -3,-1 -4,-1 1,0 2,0 4,1zm-7 -1c-1,-1 -3,-1 -4,-1l0 -93 0 -67 0 -57 80 0 -102 -86 -143 -121 -144 121 -101 86 80 0 0 57 0 67 0 123 0 0c50,-17 103,-29 158,-34 60,-6 119,-4 176,5zm-364 39c-1,1 -2,1 -3,2 1,-1 2,-1 3,-2zm-6 3c-1,0 -2,1 -3,1 1,0 2,-1 3,-1zm-6 2c-1,1 -2,1 -4,2 2,-1 3,-1 4,-2zm-6 3c-1,0 -2,1 -4,1 2,0 3,-1 4,-1z"/>
   <path class="fil1" d="M355 294c0,-27 22,-48 49,-48 27,0 49,21 49,48 0,18 -10,34 -25,43l5 8 30 51 -59 0 -59 0 30 -51 5 -8c-15,-9 -25,-25 -25,-43z"/>
  </g>
 </g>
</svg>
