<?xml version="1.0" encoding="UTF-8"?>
<!DOCTYPE svg PUBLIC "-//W3C//DTD SVG 1.1//EN" "http://www.w3.org/Graphics/SVG/1.1/DTD/svg11.dtd">
<!-- Creator: CorelDRAW X7 -->
<svg xmlns="http://www.w3.org/2000/svg" xml:space="preserve" width="21.6746mm" height="17.6952mm" version="1.1" style="shape-rendering:geometricPrecision; text-rendering:geometricPrecision; image-rendering:optimizeQuality; fill-rule:evenodd; clip-rule:evenodd"
viewBox="0 0 2167 1770"
 xmlns:xlink="http://www.w3.org/1999/xlink">
 <defs>
  <style type="text/css">
   <![CDATA[
    .fil0 {fill:url(#id0)}
    .fil1 {fill:url(#id1)}
   ]]>
  </style>
  <linearGradient id="id0" gradientUnits="userSpaceOnUse" x1="1827.19" y1="1374.16" x2="340.28" y2="395.35">
   <stop offset="0" style="stop-opacity:1; stop-color:#4D4B4A"/>
   <stop offset="1" style="stop-opacity:1; stop-color:#84807D"/>
  </linearGradient>
  <linearGradient id="id1" gradientUnits="userSpaceOnUse" xlink:href="#id0" x1="1206.46" y1="945.05" x2="947.73" y2="774.73">
  </linearGradient>
 </defs>
 <g id="Layer_x0020_1">
  <metadata id="CorelCorpID_0Corel-Layer"/>
  <g id="_601534368">
   <path class="fil0" d="M1127 44l433 364 433 365 161 136 -211 0 -271 0 0 457c174,40 341,106 496,192 -339,-97 -711,-134 -1097,-96 -385,37 -743,145 -1057,305 143,-121 304,-221 478,-297 -4,2 -7,3 -10,5l0 -566 -271 0 -211 0 161 -136 433 -365 434 -364 49 -42 50 42zm545 1321c-5,-1 -10,-2 -16,-3 6,1 11,2 16,3zm-17 -4c-6,-1 -11,-2 -16,-3 5,1 10,2 16,3zm-18 -3c-5,-2 -10,-3 -15,-4 5,1 10,2 15,4zm-18 -4c-5,-1 -9,-2 -14,-3 5,1 9,2 14,3zm-18 -4c-4,-1 -9,-2 -14,-2 5,0 10,1 14,2zm-18 -3c-4,-1 -8,-2 -13,-3 5,1 9,2 13,3zm-17 -3c-5,-1 -9,-2 -13,-3 4,1 8,2 13,3zm-19 -4c-4,0 -7,-1 -11,-1 4,0 7,1 11,1zm-18 -2c-4,-1 -7,-2 -11,-2l0 -248 0 -179 0 -154 214 0 -271 -229 -384 -323 -384 323 -271 229 214 0 0 154 0 179 0 327 0 0c134,-45 275,-76 422,-91 160,-15 318,-10 471,14zm-972 106c-3,1 -6,2 -8,3 2,-1 5,-2 8,-3zm-17 6c-2,1 -5,2 -8,4 3,-2 6,-3 8,-4zm-15 7c-4,1 -7,2 -11,4 4,-2 7,-3 11,-4zm-17 6c-3,2 -7,3 -10,5 3,-2 7,-3 10,-5z"/>
   <path class="fil1" d="M947 789c0,-72 58,-130 130,-130 72,0 131,58 131,130 0,48 -27,90 -66,113l14 23 78 136 -157 0 -157 0 79 -136 13 -23c-39,-23 -65,-65 -65,-113z"/>
  </g>
 </g>
</svg>
