<?xml version="1.0" encoding="UTF-8"?>
<!DOCTYPE svg PUBLIC "-//W3C//DTD SVG 1.1//EN" "http://www.w3.org/Graphics/SVG/1.1/DTD/svg11.dtd">
<!-- Creator: CorelDRAW X7 -->
<svg xmlns="http://www.w3.org/2000/svg" xml:space="preserve" width="86.6986mm" height="24.9766mm" version="1.1" style="shape-rendering:geometricPrecision; text-rendering:geometricPrecision; image-rendering:optimizeQuality; fill-rule:evenodd; clip-rule:evenodd"
viewBox="0 0 8670 2498"
 xmlns:xlink="http://www.w3.org/1999/xlink">
 <defs>
  <style type="text/css">
   <![CDATA[
    .fil0 {fill:#C9CACA;fill-rule:nonzero}
   ]]>
  </style>
 </defs>
 <g id="Layer_x0020_1">
  <metadata id="CorelCorpID_0Corel-Layer"/>
  <path class="fil0" d="M1593 60l612 515 613 516 228 192 -298 0 -383 0 0 646c246,57 481,150 700,271 -479,-137 -1005,-188 -1550,-135 -545,53 -1052,205 -1495,432 203,-171 430,-314 675,-420 -4,2 -9,4 -14,6l0 -800 -383 0 -298 0 228 -192 613 -516 612 -515 70 -59 70 59zm569 1829c-5,-1 -10,-2 -15,-2l0 -350 0 -254 0 -218 303 0 -384 -323 -543 -457 -542 457 -385 323 304 0 0 218 0 254 0 461 -1 1c190,-65 390,-108 597,-128 227,-23 450,-15 666,18zm-823 -776c0,-101 82,-184 184,-184 102,0 185,83 185,184 0,69 -38,128 -93,160l19 33 111 192 -222 0 -222 0 111 -192 19 -33c-55,-32 -92,-91 -92,-160zm7182 -258l149 0 0 787 -149 0 0 -787zm-532 -19c111,0 207,40 287,121 80,80 120,178 120,294 0,115 -40,212 -119,292 -79,79 -175,119 -287,119 -118,0 -216,-41 -294,-123 -79,-81 -118,-178 -118,-291 0,-75 19,-144 55,-207 36,-63 86,-113 150,-150 64,-37 132,-55 206,-55zm-2 147c-73,0 -134,25 -183,76 -50,50 -75,114 -75,193 0,87 32,155 94,206 48,40 104,59 166,59 71,0 131,-25 181,-77 50,-51 75,-114 75,-190 0,-74 -25,-138 -76,-190 -50,-52 -111,-77 -182,-77zm-1254 -128l146 0 183 549 184 -549 145 0 132 787 -145 0 -84 -497 -166 497 -133 0 -166 -497 -85 497 -146 0 135 -787zm-698 0l476 0 -281 643 263 0 0 144 -481 0 279 -639 -256 0 0 -148zm-564 0l430 0 0 147 -280 0 0 142 280 0 0 144 -280 0 0 207 280 0 0 147 -430 0 0 -787zm-700 0l153 0 0 297 263 0 0 -297 151 0 0 787 -151 0 0 -345 -263 0 0 345 -153 0 0 -787zm-130 138l-105 100c-71,-75 -152,-113 -241,-113 -75,0 -139,26 -190,77 -52,52 -78,115 -78,190 0,53 12,99 35,140 23,40 55,72 96,96 42,23 89,34 140,34 43,0 83,-8 119,-24 36,-16 76,-46 119,-89l102 107c-58,57 -113,96 -165,118 -52,22 -111,33 -177,33 -123,0 -223,-39 -301,-116 -78,-78 -117,-177 -117,-298 0,-79 18,-149 54,-210 35,-61 86,-110 152,-147 66,-37 138,-55 214,-55 65,0 127,13 188,41 60,27 112,66 155,116z"/>
 </g>
</svg>
