<?xml version="1.0" encoding="UTF-8"?>
<!DOCTYPE svg PUBLIC "-//W3C//DTD SVG 1.1//EN" "http://www.w3.org/Graphics/SVG/1.1/DTD/svg11.dtd">
<!-- Creator: CorelDRAW X7 -->
<svg xmlns="http://www.w3.org/2000/svg" xml:space="preserve" width="5.4186mm" height="5.4186mm" version="1.1" style="shape-rendering:geometricPrecision; text-rendering:geometricPrecision; image-rendering:optimizeQuality; fill-rule:evenodd; clip-rule:evenodd"
viewBox="0 0 542 542"
 xmlns:xlink="http://www.w3.org/1999/xlink">
 <defs>
  <style type="text/css">
   <![CDATA[
    .fil1 {fill:#284FEB}
    .fil0 {fill:#4D6EF0}
    .fil2 {fill:#FEFEFE;fill-rule:nonzero}
   ]]>
  </style>
 </defs>
 <g id="Layer_x0020_1">
  <metadata id="CorelCorpID_0Corel-Layer"/>
  <g id="_801994496">
   <circle class="fil0" cx="271" cy="271" r="271"/>
   <g>
    <path class="fil1" d="M531 346c-33,113 -137,196 -260,196 -22,0 -44,-3 -65,-8l-119 -111c24,-21 51,-38 80,-51l0 0 0 -19 -82 -78 27 -23 75 -63 74 -63 9 -7 8 7 75 63 74 63 28 23 76 71zm-413 62l6 -2c-2,1 -4,1 -6,2zm50 -18l5 -2c-2,1 -3,2 -5,2zm11 -3l3 -1 0 0 -3 1zm-11 -15l0 0 0 0 0 0zm0 0l0 0 0 0 0 0zm1 0l0 0 0 0 0 0 0 0 0 0zm27 10l3 0 0 0 -3 0zm-27 -10l-1 0 1 0z"/>
   </g>
   <path class="fil2" d="M278 126l75 63 74 63 28 23 -36 0 -47 0 0 79c30,7 59,18 85,33 -58,-17 -122,-23 -188,-17 -66,7 -128,25 -182,53 25,-21 52,-38 82,-51 0,0 -1,0 -2,0l0 -97 -46 0 -36 0 27 -23 75 -63 74 -63 9 -7 8 7zm69 223c0,0 -1,0 -1,-1l0 -42 0 -31 0 -26 36 0 -46 -40 -66 -55 -66 55 -47 40 37 0 0 26 0 31 0 56 0 0c23,-8 47,-13 72,-16 28,-2 55,-1 81,3zm-100 -95c0,-12 10,-22 23,-22 12,0 22,10 22,22 0,9 -4,16 -11,20l2 4 14 23 -27 0 -27 0 13 -23 3 -4c-7,-4 -12,-11 -12,-20z"/>
  </g>
 </g>
</svg>
